<svg width="1025" height="1024" viewBox="0 0 1025 1024" fill="none" xmlns="http://www.w3.org/2000/svg">
<rect width="1024" height="1024" transform="translate(0.280273)" fill="black"/>
<path fill-rule="evenodd" clip-rule="evenodd" d="M422.165 196.606H226.922L543.253 842.409H545.13L422.165 196.606ZM286.997 406.868H226.922V827.391H286.997V406.868ZM647.445 197.545C684.022 219.121 714.091 261.41 714.091 310.185C714.091 374.913 668.051 425.641 606.144 425.641C594.87 425.641 585.146 422.303 583.737 421.798C627.558 419.774 662.464 383.605 662.464 339.284C662.464 293.664 625.481 256.682 579.861 256.682C534.241 256.682 497.259 293.664 497.259 339.284C497.259 339.566 497.26 339.847 497.263 340.128H497.259C497.259 374.836 517.932 405.004 545.131 419.07C570.461 433.137 597.723 438.782 629.611 438.782C735.604 438.782 812.651 370.183 812.651 271.7C812.651 243.567 804.198 211.607 795.755 196.606H647.445V197.545ZM797.632 481.961H647.445V827.391H797.632V481.961Z" fill="#F2F2EF"/>
</svg>
